<svg xmlns="http://www.w3.org/2000/svg" width="16" height="16" viewBox="0 0 16 16" fill="none">
  <path d="M9.56818 2C10.4541 2 11.2595 2.26846 11.9843 2.80537C12.736 3.34228 13.246 4.05369 13.5145 4.9396C13.7829 5.79866 13.7695 6.65772 13.4742 7.51678C13.1789 8.37584 12.6554 9.0604 11.9037 9.57047C11.1521 10.0805 10.3199 10.3221 9.4071 10.2953C8.5212 10.2685 7.71583 9.97315 6.99099 9.4094L2.96415 14L2.40039 13.5168L6.42724 8.88591C5.89032 8.2953 5.55475 7.59732 5.42053 6.79195C5.31314 5.98658 5.42052 5.20805 5.74267 4.45638C6.09167 3.7047 6.60173 3.11409 7.27287 2.68456C7.97086 2.22819 8.73596 2 9.56818 2ZM9.56818 9.5302V9.57047C10.1856 9.57047 10.7494 9.42282 11.2595 9.12752C11.7695 8.80537 12.1722 8.38926 12.4675 7.87919C12.7897 7.34228 12.9507 6.7651 12.9507 6.14765C12.9507 5.5302 12.7897 4.96644 12.4675 4.45638C12.1722 3.91946 11.7695 3.50336 11.2595 3.20805C10.7494 2.91275 10.1856 2.7651 9.56818 2.7651C8.95073 2.7651 8.37355 2.91275 7.83663 3.20805C7.32657 3.50336 6.91046 3.91946 6.58831 4.45638C6.29301 4.96644 6.14536 5.5302 6.14536 6.14765C6.14536 6.7651 6.29301 7.34228 6.58831 7.87919C6.91046 8.38926 7.32657 8.79195 7.83663 9.08725C8.37355 9.38255 8.95073 9.5302 9.56818 9.5302Z" fill="#A0A0A0"/>
</svg>