<svg width="24" height="24" viewBox="0 0 24 24" fill="none" xmlns="http://www.w3.org/2000/svg">
<path fill-rule="evenodd" clip-rule="evenodd" d="M12 21.8557L15.0325 18.8232H17.1768L13.0728 22.9285L12 24L10.9285 22.9285L1.07276 13.0728L0 12L1.07276 10.9285L10.9285 1.07276L12 0L13.0728 1.07276L22.9285 10.9285L24 12L22.9285 13.0728L21.7256 14.2744H19.5813L21.8557 12L12 2.14426L2.14426 12L12 21.8557ZM10.3536 8.20932H8.20935L12 12L8.20935 15.7907H10.3536L14.1443 12L10.3536 8.20932ZM15.2903 15.7907L12.6647 17.3069H21.8242V15.7907H15.2903Z" fill="white"/>
</svg>
