<svg width="12" height="12" fill="none" xmlns="http://www.w3.org/2000/svg">
	<g clip-path="url(#clip0_7464_114461)">
		<path fill-rule="evenodd" clip-rule="evenodd" d="M12 6C12 9.31371 9.31371 12 6 12C2.68629 12 0 9.31371 0 6C0 2.68629 2.68629 0 6 0C9.31371 0 12 2.68629 12 6ZM5.50002 10.9753L5.50002 4.70711L3.85358 6.35355L3.14647 5.64645L6.00002 2.79289L8.85358 5.64645L8.14647 6.35355L6.50002 4.70711L6.50002 10.9753C9.02667 10.7244 11 8.59267 11 6C11 3.23858 8.76142 1 6 1C3.23858 1 1 3.23858 1 6C1 8.59268 2.97335 10.7245 5.50002 10.9753Z" style="fill: var(--vscode-editor-foreground, white)" />
	</g>
	<defs>
		<clipPath id="clip0_7464_114461">
			<rect width="12" height="12" style="fill: var(--vscode-editor-foreground, white)"/>
		</clipPath>
	</defs>
</svg>
