<svg width="24" height="24" viewBox="-7 -7 24 24" fill="none" xmlns="http://www.w3.org/2000/svg">
<path d="M5 2.5C5.55228 2.5 6 2.05228 6 1.5C6 0.947715 5.55228 0.5 5 0.5C4.44772 0.5 4 0.947715 4 1.5C4 2.05228 4.44772 2.5 5 2.5Z" style="fill: var(--vscode-editor-foreground, white)" />
<path d="M5 9.5C5.55228 9.5 6 9.05229 6 8.5C6 7.94771 5.55228 7.5 5 7.5C4.44772 7.5 4 7.94771 4 8.5C4 9.05229 4.44772 9.5 5 9.5Z" style="fill: var(--vscode-editor-foreground, white)" />
<path d="M0.5 5.5H9.5V4.5H0.5V5.5Z" style="fill: var(--vscode-editor-foreground, white)"/>
</svg>
