<svg 
  width="12" 
  height="13" 
  viewBox="0 0 12 13" 
  fill="#519ABA" 
  xmlns="http://www.w3.org/2000/svg">
    <path d="M6.82 0.24C6.82 0.266666 6.82667 0.293333 6.84 0.32C6.86667 0.333333 6.88 0.353333 6.88 0.379999L9.82 3.32C9.86 3.36 9.88 3.42 9.88 3.5V5.38C9.77333 5.32667 9.61333 5.26 9.4 5.18L9.06 5.06V4.12H6.76C6.50667 4.12 6.30667 4.04667 6.16 3.9C6.01333 3.75333 5.94 3.56 5.94 3.32V1.06H1.26V12H4.44C4.52 12 4.58 12.02 4.62 12.06C4.91333 12.3533 5.14667 12.56 5.32 12.68L5.38 12.76H1.12C0.866667 12.6933 0.686667 12.5733 0.58 12.4C0.486667 12.2533 0.44 12.06 0.44 11.82V1.06C0.44 0.7 0.606667 0.453333 0.94 0.32C0.993334 0.32 1.04 0.313333 1.08 0.299999C1.13333 0.273332 1.16667 0.259999 1.18 0.259999H6.82V0.24ZM9.12 3.38L6.82 1.06V3.38H9.12ZM7.68 12.74C7.6 12.7267 7.48667 12.7133 7.34 12.7C7.19333 12.6733 7.08 12.6467 7 12.62C6.32 12.4333 5.74667 12.06 5.28 11.5C4.82667 10.94 4.56667 10.3133 4.5 9.62C4.43333 9.00667 4.52 8.42667 4.76 7.88C5.01333 7.32 5.38 6.86 5.86 6.5C6.34 6.12667 6.89333 5.9 7.52 5.82C8.14667 5.72667 8.75333 5.80667 9.34 6.06C9.94 6.31333 10.4333 6.69333 10.82 7.2C11.2067 7.70667 11.4333 8.28667 11.5 8.94V9.62C11.4333 10.3133 11.1667 10.94 10.7 11.5C10.2467 12.06 9.68 12.4333 9 12.62C8.66667 12.7 8.44 12.74 8.32 12.74H7.68ZM7.94 6.5C7.44667 6.5 6.98667 6.62667 6.56 6.88C6.14667 7.12 5.81333 7.45333 5.56 7.88C5.30667 8.30667 5.18 8.76667 5.18 9.26C5.18 9.74 5.30667 10.1933 5.56 10.62C5.81333 11.0333 6.14667 11.36 6.56 11.6C6.98667 11.84 7.44667 11.96 7.94 11.96C8.43333 11.9467 8.88667 11.8133 9.3 11.56C9.72667 11.3067 10.06 10.9733 10.3 10.56C10.5533 10.1333 10.68 9.68 10.68 9.2C10.68 8.70667 10.5533 8.25333 10.3 7.84C10.06 7.42667 9.72667 7.1 9.3 6.86C8.88667 6.62 8.43333 6.5 7.94 6.5ZM8.38 8.88H9.12C9.24 8.88 9.34 8.92 9.42 9C9.51333 9.06667 9.56 9.16 9.56 9.28C9.56 9.38667 9.52 9.47333 9.44 9.54C9.36 9.59333 9.25333 9.62 9.12 9.62H8.38V10.5C8.34 10.5933 8.28 10.6733 8.2 10.74C8.12 10.7933 8.03333 10.82 7.94 10.82C7.84667 10.82 7.76 10.78 7.68 10.7C7.6 10.62 7.56 10.5333 7.56 10.44V9.62H6.76C6.65333 9.62 6.56 9.58667 6.48 9.52C6.41333 9.44 6.38 9.35333 6.38 9.26C6.38 9.15333 6.41333 9.06667 6.48 9C6.56 8.92 6.65333 8.88 6.76 8.88H7.56V8.06C7.56 7.96667 7.6 7.88 7.68 7.8C7.76 7.72 7.84667 7.68 7.94 7.68C8.03333 7.68 8.12 7.72 8.2 7.8C8.28 7.88 8.32 7.96667 8.32 8.06V8.38C8.34667 8.43333 8.36 8.5 8.36 8.58L8.38 8.88V8.82V8.88Z" fill="#519ABA"/>
</svg>
