<svg width="24" height="24" viewBox="0 0 24 24" fill="none" xmlns="http://www.w3.org/2000/svg">
<path fill-rule="evenodd" clip-rule="evenodd" d="M19.0909 3C19.0909 4.05436 19.9456 4.90909 21 4.90909C22.0544 4.90909 22.9091 4.05436 22.9091 3C22.9091 1.94564 22.0544 1.09091 21 1.09091C19.9456 1.09091 19.0909 1.94564 19.0909 3ZM18 3C18 4.65686 19.3431 6 21 6C22.6569 6 24 4.65686 24 3C24 1.34315 22.6569 8.52702e-07 21 7.80279e-07C19.3431 7.07856e-07 18 1.34315 18 3Z" fill="white"/>
<path fill-rule="evenodd" clip-rule="evenodd" d="M10.0909 3C10.0909 4.05436 10.9456 4.90909 12 4.90909C13.0544 4.90909 13.9091 4.05436 13.9091 3C13.9091 1.94564 13.0544 1.09091 12 1.09091C10.9456 1.09091 10.0909 1.94564 10.0909 3ZM9 3C9 4.65685 10.3431 6 12 6C13.6569 6 15 4.65686 15 3C15 1.34315 13.6569 3.32516e-07 12 2.60093e-07C10.3431 1.8767e-07 9 1.34315 9 3Z" fill="white"/>
<path d="M3 6C1.34315 6 9.67949e-07 4.65685 1.04037e-06 3C1.1128e-06 1.34315 1.34315 -7.24234e-08 3 0C4.65686 7.24234e-08 6 1.34315 6 3C6 4.65685 4.65686 6 3 6Z" fill="white"/>
<path fill-rule="evenodd" clip-rule="evenodd" d="M1.09091 3C1.09091 4.05436 1.94564 4.90909 3 4.90909C4.05436 4.90909 4.90909 4.05436 4.90909 3C4.90909 1.94564 4.05436 1.09091 3 1.09091C1.94564 1.09091 1.09091 1.94564 1.09091 3ZM1.04037e-06 3C9.67949e-07 4.65685 1.34315 6 3 6C4.65686 6 6 4.65685 6 3C6 1.34315 4.65686 7.24234e-08 3 0C1.34315 -7.24234e-08 1.1128e-06 1.34315 1.04037e-06 3Z" fill="white"/>
<path fill-rule="evenodd" clip-rule="evenodd" d="M19.0909 12C19.0909 13.0544 19.9456 13.9091 21 13.9091C22.0544 13.9091 22.9091 13.0544 22.9091 12C22.9091 10.9456 22.0544 10.0909 21 10.0909C19.9456 10.0909 19.0909 10.9456 19.0909 12ZM18 12C18 13.6569 19.3431 15 21 15C22.6569 15 24 13.6569 24 12C24 10.3431 22.6569 9 21 9C19.3431 9 18 10.3431 18 12Z" fill="white"/>
<path d="M12 15C10.3431 15 9 13.6569 9 12C9 10.3431 10.3431 9 12 9C13.6569 9 15 10.3431 15 12C15 13.6569 13.6569 15 12 15Z" fill="white"/>
<path fill-rule="evenodd" clip-rule="evenodd" d="M10.0909 12C10.0909 13.0544 10.9456 13.9091 12 13.9091C13.0544 13.9091 13.9091 13.0544 13.9091 12C13.9091 10.9456 13.0544 10.0909 12 10.0909C10.9456 10.0909 10.0909 10.9456 10.0909 12ZM9 12C9 13.6569 10.3431 15 12 15C13.6569 15 15 13.6569 15 12C15 10.3431 13.6569 9 12 9C10.3431 9 9 10.3431 9 12Z" fill="white"/>
<path d="M3 15C1.34315 15 9.67949e-07 13.6569 1.04037e-06 12C1.1128e-06 10.3431 1.34315 9 3 9C4.65686 9 6 10.3431 6 12C6 13.6569 4.65686 15 3 15Z" fill="white"/>
<path fill-rule="evenodd" clip-rule="evenodd" d="M1.09091 12C1.09091 13.0544 1.94564 13.9091 3 13.9091C4.05436 13.9091 4.90909 13.0544 4.90909 12C4.90909 10.9456 4.05436 10.0909 3 10.0909C1.94564 10.0909 1.09091 10.9456 1.09091 12ZM1.04037e-06 12C9.67949e-07 13.6569 1.34315 15 3 15C4.65686 15 6 13.6569 6 12C6 10.3431 4.65686 9 3 9C1.34315 9 1.1128e-06 10.3431 1.04037e-06 12Z" fill="white"/>
<path fill-rule="evenodd" clip-rule="evenodd" d="M19.0909 21C19.0909 22.0544 19.9456 22.9091 21 22.9091C22.0544 22.9091 22.9091 22.0544 22.9091 21C22.9091 19.9456 22.0544 19.0909 21 19.0909C19.9456 19.0909 19.0909 19.9456 19.0909 21ZM18 21C18 22.6569 19.3431 24 21 24C22.6569 24 24 22.6569 24 21C24 19.3431 22.6569 18 21 18C19.3431 18 18 19.3431 18 21Z" fill="white"/>
<path fill-rule="evenodd" clip-rule="evenodd" d="M10.0909 21C10.0909 22.0544 10.9456 22.9091 12 22.9091C13.0544 22.9091 13.9091 22.0544 13.9091 21C13.9091 19.9456 13.0544 19.0909 12 19.0909C10.9456 19.0909 10.0909 19.9456 10.0909 21ZM9 21C9 22.6569 10.3431 24 12 24C13.6569 24 15 22.6569 15 21C15 19.3431 13.6569 18 12 18C10.3431 18 9 19.3431 9 21Z" fill="white"/>
<path d="M3 24C1.34315 24 -7.24234e-08 22.6569 0 21C7.24234e-08 19.3431 1.34315 18 3 18C4.65685 18 6 19.3431 6 21C6 22.6569 4.65685 24 3 24Z" fill="white"/>
<path fill-rule="evenodd" clip-rule="evenodd" d="M1.09091 21C1.09091 22.0544 1.94564 22.9091 3 22.9091C4.05436 22.9091 4.90909 22.0544 4.90909 21C4.90909 19.9456 4.05436 19.0909 3 19.0909C1.94564 19.0909 1.09091 19.9456 1.09091 21ZM0 21C-7.24234e-08 22.6569 1.34315 24 3 24C4.65685 24 6 22.6569 6 21C6 19.3431 4.65685 18 3 18C1.34315 18 7.24234e-08 19.3431 0 21Z" fill="white"/>
</svg>
